<?xml version="1.0" standalone="no"?>
<!DOCTYPE svg PUBLIC "-//W3C//DTD SVG 20010904//EN"
 "http://www.w3.org/TR/2001/REC-SVG-20010904/DTD/svg10.dtd">
<svg version="1.0" xmlns="http://www.w3.org/2000/svg"
 width="768.000000pt" height="768.000000pt" viewBox="0 0 768.000000 768.000000"
 preserveAspectRatio="xMidYMid meet">
<metadata>
Created by potrace 1.14, written by Peter Selinger 2001-2017
</metadata>
<g transform="translate(0.000000,768.000000) scale(0.100000,-0.100000)"
fill="#000000" stroke="none">
<path d="M3065 7626 c-33 -23 -208 -148 -390 -276 -181 -128 -366 -259 -410
-290 -366 -261 -511 -364 -591 -420 -101 -70 -354 -249 -609 -430 -88 -62
-178 -126 -200 -142 -67 -47 -248 -175 -280 -198 -16 -12 -75 -53 -130 -92
-140 -98 -138 -95 -130 -143 4 -22 8 -51 10 -65 9 -63 56 -371 64 -420 6 -30
15 -89 21 -130 6 -41 15 -103 20 -137 6 -35 14 -91 20 -125 14 -97 20 -131 24
-153 2 -11 7 -42 10 -70 4 -27 9 -61 11 -75 9 -55 117 -759 126 -820 5 -36 12
-76 14 -90 3 -14 9 -59 15 -100 6 -41 12 -86 15 -100 5 -28 95 -612 100 -650
5 -36 70 -463 105 -685 16 -104 32 -212 36 -239 7 -53 -7 -42 149 -111 17 -7
66 -28 110 -45 44 -17 94 -38 110 -45 17 -8 291 -122 610 -255 319 -132 589
-245 600 -250 22 -10 530 -222 660 -275 169 -69 882 -367 922 -386 24 -10 46
-19 49 -19 3 0 20 -6 37 -14 43 -19 258 -109 552 -230 50 -21 99 -41 110 -46
102 -46 211 -90 224 -90 9 0 39 39 71 91 30 49 62 101 70 114 8 13 31 50 51
82 89 143 464 741 484 773 13 19 175 278 360 575 186 297 352 563 369 590 39
60 80 125 275 435 l147 236 12 84 c7 47 14 103 17 125 3 22 14 108 25 190 10
83 22 173 25 200 4 28 8 61 10 75 3 20 40 307 60 465 2 17 6 46 9 65 6 39 6
40 41 315 14 110 28 216 30 236 3 20 8 54 11 75 14 115 45 353 49 379 2 17 7
53 10 80 3 28 7 61 10 75 2 14 7 45 9 70 3 25 7 61 10 80 3 19 13 91 21 160
17 134 19 146 34 260 6 41 13 98 16 125 3 28 13 100 21 160 8 61 17 126 19
145 9 74 26 206 30 230 2 14 7 48 10 75 2 28 7 59 9 71 6 29 -4 40 -44 48 -19
5 -51 11 -70 16 -19 4 -102 23 -185 43 -82 20 -161 38 -175 41 -14 3 -178 41
-365 86 -187 44 -367 87 -400 94 -72 16 -548 127 -690 161 -55 13 -156 38
-225 54 -69 16 -197 46 -285 66 -88 20 -214 50 -280 66 -101 25 -154 37 -315
74 -8 1 -100 23 -205 48 -234 55 -415 98 -435 102 -8 2 -131 31 -273 64 -142
34 -266 61 -275 61 -9 0 -44 -20 -77 -44z"/>
</g>
</svg>
